<svg xmlns="http://www.w3.org/2000/svg" xmlns:xlink="http://www.w3.org/1999/xlink" version="1.1" id="Layer_1" x="0px" y="0px" viewBox="0 0 512 512" style="enable-background:new 0 0 512 512;" xml:space="preserve">
<g>
	<path d="M219.6,7c-3.3-2.2-6.9-4-10.8-5.2c-3.9-1.2-8-1.9-12.2-1.9H41.1V0c-5.6,0-11,1.2-15.9,3.2C17.7,6.4,11.5,11.6,7,18.1   C4.8,21.4,3,25,1.8,28.9C0.6,32.8,0,36.9,0,41.1v155.4c0,5.6,1.2,11.1,3.2,16c3.1,7.4,8.3,13.7,14.9,18.1c3.3,2.2,6.9,4,10.8,5.2   c3.9,1.2,8,1.9,12.2,1.9h155.4c5.6,0,11.1-1.2,16-3.2c7.4-3.1,13.7-8.3,18.1-14.9c2.2-3.3,4-6.9,5.2-10.8c1.2-3.9,1.9-8,1.9-12.2   V41.1c0-5.6-1.2-11.1-3.2-16C231.4,17.7,226.2,11.4,219.6,7z M201.1,196.7c0,0.7-0.1,1.2-0.4,1.8c-0.3,0.8-0.9,1.5-1.7,2   c-0.4,0.2-0.8,0.4-1.2,0.6c-0.4,0.1-0.9,0.2-1.4,0.2H41.1c-0.7,0-1.2-0.1-1.8-0.4c-0.8-0.3-1.5-0.9-2-1.7c-0.2-0.4-0.4-0.8-0.6-1.2   c-0.1-0.4-0.2-0.9-0.2-1.4V41.1c0-0.7,0.1-1.2,0.4-1.8c0.3-0.8,0.9-1.5,1.7-2c0.4-0.2,0.8-0.4,1.2-0.6c0.4-0.1,0.8-0.2,1.3-0.2v0.1   h155.4c0.7,0,1.2,0.1,1.8,0.4c0.8,0.3,1.5,0.9,2,1.7c0.2,0.4,0.4,0.8,0.6,1.2c0.1,0.4,0.2,0.9,0.2,1.4V196.7z"/>
	<path d="M508.8,25.1c-3.1-7.4-8.3-13.7-14.9-18.1c-3.3-2.2-6.9-4-10.8-5.2c-3.9-1.2-8-1.9-12.2-1.9H315.4V0c-5.6,0-11,1.2-15.9,3.2   c-7.4,3.1-13.7,8.3-18.1,14.9c-2.2,3.3-4,6.9-5.2,10.8c-1.2,3.9-1.9,8-1.9,12.2v155.4c0,5.6,1.2,11.1,3.2,16   c3.1,7.4,8.3,13.7,14.9,18.1c3.3,2.2,6.9,4,10.8,5.2c3.9,1.2,8,1.9,12.2,1.9h155.4c5.6,0,11.1-1.2,16-3.2   c7.4-3.1,13.7-8.3,18.1-14.9c2.2-3.3,4-6.9,5.2-10.8c1.2-3.9,1.9-8,1.9-12.2V41.1C512,35.5,510.8,30,508.8,25.1z M475.4,196.7   c0,0.7-0.1,1.2-0.4,1.8c-0.3,0.8-0.9,1.5-1.7,2c-0.4,0.2-0.8,0.4-1.2,0.6c-0.4,0.1-0.9,0.2-1.4,0.2H315.4c-0.7,0-1.2-0.1-1.8-0.4   c-0.8-0.3-1.5-0.9-2-1.7c-0.2-0.4-0.4-0.8-0.6-1.2c-0.1-0.4-0.2-0.9-0.2-1.4V41.1c0-0.7,0.1-1.2,0.4-1.8c0.3-0.8,0.9-1.5,1.7-2   c0.4-0.2,0.8-0.4,1.2-0.6c0.4-0.1,0.8-0.2,1.3-0.2v0.1h155.4c0.7,0,1.2,0.1,1.8,0.4c0.8,0.3,1.5,0.9,2,1.7c0.2,0.4,0.4,0.8,0.6,1.2   c0.1,0.4,0.2,0.9,0.2,1.4V196.7z"/>
	<path d="M219.6,281.3c-3.3-2.2-6.9-4-10.8-5.2c-3.9-1.2-8-1.9-12.2-1.9H41.1v0.1c-5.6,0-11,1.2-15.9,3.2   c-7.4,3.1-13.7,8.3-18.1,14.9c-2.2,3.3-4,6.9-5.2,10.8c-1.2,3.9-1.9,8-1.9,12.2v155.4c0,5.6,1.2,11.1,3.2,16   c3.1,7.4,8.3,13.7,14.9,18.1c3.3,2.2,6.9,4,10.8,5.2c3.9,1.2,8,1.9,12.2,1.9h155.4c5.6,0,11.1-1.2,16-3.2   c7.4-3.1,13.7-8.3,18.1-14.9c2.2-3.3,4-6.9,5.2-10.8c1.2-3.9,1.9-8,1.9-12.2V315.4c0-5.6-1.2-11.1-3.2-16   C231.4,292,226.2,285.7,219.6,281.3z M201.1,471c0,0.7-0.1,1.2-0.4,1.8c-0.3,0.8-0.9,1.5-1.7,2c-0.4,0.2-0.8,0.4-1.2,0.6   c-0.4,0.1-0.9,0.2-1.4,0.2H41.1c-0.7,0-1.2-0.1-1.8-0.4c-0.8-0.3-1.5-0.9-2-1.7c-0.2-0.4-0.4-0.8-0.6-1.2c-0.1-0.4-0.2-0.9-0.2-1.4   V315.4c0-0.7,0.1-1.2,0.4-1.8c0.3-0.8,0.9-1.5,1.7-2c0.4-0.2,0.8-0.4,1.2-0.6c0.4-0.1,0.8-0.2,1.3-0.2v0.1h155.4   c0.7,0,1.2,0.1,1.8,0.4c0.8,0.3,1.5,0.9,2,1.7c0.2,0.4,0.4,0.8,0.6,1.2c0.1,0.4,0.2,0.9,0.2,1.4V471z"/>
	<path d="M493.9,281.3c-3.3-2.2-6.9-4-10.8-5.2c-3.9-1.2-8-1.9-12.2-1.9H315.4v0.1c-5.6,0-11,1.2-15.9,3.2   c-7.4,3.1-13.7,8.3-18.1,14.9c-2.2,3.3-4,6.9-5.2,10.8c-1.2,3.9-1.9,8-1.9,12.2v155.4c0,5.6,1.2,11.1,3.2,16   c3.1,7.4,8.3,13.7,14.9,18.1c3.3,2.2,6.9,4,10.8,5.2c3.9,1.2,8,1.9,12.2,1.9h155.4c5.6,0,11.1-1.2,16-3.2   c7.4-3.1,13.7-8.3,18.1-14.9c2.2-3.3,4-6.9,5.2-10.8c1.2-3.9,1.9-8,1.9-12.2V315.4c0-5.6-1.2-11.1-3.2-16   C505.7,292,500.5,285.7,493.9,281.3z M475.4,471c0,0.7-0.1,1.2-0.4,1.8c-0.3,0.8-0.9,1.5-1.7,2c-0.4,0.2-0.8,0.4-1.2,0.6   c-0.4,0.1-0.9,0.2-1.4,0.2H315.4c-0.7,0-1.2-0.1-1.8-0.4c-0.8-0.3-1.5-0.9-2-1.7c-0.2-0.4-0.4-0.8-0.6-1.2   c-0.1-0.4-0.2-0.9-0.2-1.4V315.4c0-0.7,0.1-1.2,0.4-1.8c0.3-0.8,0.9-1.5,1.7-2c0.4-0.2,0.8-0.4,1.2-0.6c0.4-0.1,0.8-0.2,1.3-0.2   v0.1h155.4c0.7,0,1.2,0.1,1.8,0.4c0.8,0.3,1.5,0.9,2,1.7c0.2,0.4,0.4,0.8,0.6,1.2c0.1,0.4,0.2,0.9,0.2,1.4V471z"/>
</g>
</svg>